<?xml version="1.0" standalone="no"?>
<!DOCTYPE svg PUBLIC "-//W3C//DTD SVG 20010904//EN"
 "http://www.w3.org/TR/2001/REC-SVG-20010904/DTD/svg10.dtd">
<svg version="1.0" xmlns="http://www.w3.org/2000/svg"
 width="512.000000pt" height="512.000000pt" viewBox="0 0 512.000000 512.000000"
 preserveAspectRatio="xMidYMid meet">
<metadata>
Created by potrace 1.11, written by Peter Selinger 2001-2013
</metadata>
<g transform="translate(0.000000,512.000000) scale(0.100000,-0.100000)"
fill="#000000" stroke="none">
<path d="M1370 4175 c-30 -31 -39 -46 -29 -49 81 -24 187 -65 242 -93 37 -18
72 -31 77 -28 6 4 28 33 51 66 64 95 94 57 39 -51 -35 -68 -36 -64 32 -105
l27 -16 60 73 c34 40 61 79 61 86 0 7 -42 33 -93 57 -96 46 -254 89 -363 99
l-60 5 -44 -44z"/>
<path d="M1188 4194 c-118 -25 -122 -31 -29 -39 l83 -7 31 31 32 31 -25 -1
c-14 0 -55 -7 -92 -15z"/>
<path d="M1013 4071 c-43 -7 -66 -21 -48 -27 45 -17 161 -109 265 -211 114
-112 127 -122 147 -112 11 6 67 54 122 106 65 61 107 93 116 89 26 -10 16 -41
-25 -81 -22 -21 -40 -49 -40 -60 0 -14 -24 -42 -65 -79 -36 -31 -65 -61 -65
-65 0 -4 26 -41 58 -82 31 -42 82 -112 112 -157 30 -45 57 -82 60 -82 3 0 21
13 39 28 l34 28 -13 74 c-8 46 -10 107 -6 157 l6 83 -38 0 c-38 0 -72 23 -72
47 0 6 24 25 53 41 28 16 63 41 76 55 l23 26 -53 34 c-114 72 -266 138 -386
166 l-51 13 -61 -48 c-57 -44 -91 -55 -61 -19 11 13 8 14 -21 9 l-34 -7 33 35
c17 19 32 37 32 41 0 8 -79 7 -137 -2z"/>
<path d="M2255 3993 c-124 -17 -255 -77 -329 -150 -25 -24 -60 -74 -78 -111
-32 -64 -33 -72 -33 -182 0 -103 3 -121 26 -170 63 -134 155 -213 379 -325
215 -108 290 -174 290 -258 0 -49 -21 -90 -62 -120 -49 -36 -92 -47 -183 -47
-113 0 -217 29 -357 98 -65 32 -118 54 -118 48 0 -27 68 -298 77 -307 17 -17
235 -67 343 -79 175 -19 340 7 471 76 90 48 189 152 220 232 30 78 37 225 15
312 -37 143 -115 219 -361 350 -190 102 -258 148 -292 199 -45 66 -18 144 66
188 81 42 202 27 366 -47 l65 -29 0 129 0 129 -67 21 c-137 42 -316 60 -438
43z"/>
<path d="M880 3952 c-19 -15 -24 -31 -28 -94 -3 -45 0 -78 6 -82 5 -3 22 4 36
15 40 32 41 17 2 -30 -29 -35 -34 -47 -29 -74 9 -50 43 -180 47 -184 2 -3 16
3 30 12 32 21 33 14 4 -25 -50 -68 4 -46 224 89 59 36 108 71 108 76 0 16
-159 194 -213 238 -48 39 -120 76 -148 77 -9 0 -27 -8 -39 -18z"/>
<path d="M2905 3948 c-18 -50 -85 -321 -81 -325 3 -3 27 3 53 15 90 38 155 52
245 52 l89 0 -3 -572 -3 -573 -24 -52 c-13 -29 -29 -58 -37 -64 -8 -6 -14 -15
-14 -20 0 -5 132 -9 295 -9 162 0 295 2 295 4 0 3 -14 27 -30 53 -18 29 -34
73 -40 108 -6 34 -10 294 -10 593 l0 532 98 0 c100 0 160 -17 204 -57 10 -9
20 -14 22 -12 4 4 76 319 76 332 0 4 -254 7 -565 7 -444 0 -567 -3 -570 -12z"/>
<path d="M4160 3955 c0 -2 14 -24 30 -47 20 -28 34 -64 40 -103 13 -79 13
-1161 0 -1240 -6 -35 -22 -79 -40 -108 -16 -26 -30 -50 -30 -53 0 -2 133 -4
295 -4 163 0 295 4 295 9 0 5 -6 14 -14 20 -8 6 -24 35 -37 64 l-24 52 0 640
0 640 22 45 c12 25 30 55 39 68 l16 22 -296 0 c-163 0 -296 -2 -296 -5z"/>
<path d="M741 3858 c-34 -71 -73 -211 -60 -216 4 -2 31 14 58 34 l51 38 0 103
c0 58 -4 103 -9 103 -6 0 -23 -28 -40 -62z"/>
<path d="M507 3592 c-42 -42 -77 -81 -77 -85 0 -19 70 -5 107 22 34 25 41 36
49 85 6 31 8 56 5 56 -4 0 -41 -35 -84 -78z"/>
<path d="M752 3581 c-50 -59 -53 -74 -14 -65 26 7 27 7 9 -13 -10 -11 -35 -28
-57 -38 -39 -18 -40 -19 -40 -71 0 -29 4 -55 9 -58 18 -12 76 21 180 100 6 5
-32 194 -39 194 -4 0 -26 -22 -48 -49z"/>
<path d="M1255 3524 c-38 -25 -121 -73 -183 -106 -121 -65 -116 -58 -91 -125
10 -27 17 -28 41 -6 26 24 32 11 8 -20 -26 -33 -26 -34 11 -122 32 -74 44 -86
67 -63 18 18 15 -2 -3 -22 -21 -24 -9 -53 19 -44 52 16 391 197 420 225 15 14
-183 329 -207 329 -6 0 -43 -21 -82 -46z"/>
<path d="M519 3314 c-36 -38 -37 -38 31 -18 13 3 20 14 20 30 0 33 -10 30 -51
-12z"/>
<path d="M825 3300 c-28 -12 -57 -39 -93 -85 -46 -60 -52 -73 -46 -99 16 -73
12 -74 122 8 56 42 102 80 102 84 0 15 -32 102 -38 106 -4 2 -25 -4 -47 -14z"/>
<path d="M1734 3241 l-32 -19 79 -158 c43 -86 81 -160 86 -165 9 -9 120 57
160 94 l23 20 -63 42 c-34 23 -97 79 -139 124 -42 44 -78 81 -80 81 -2 0 -17
-9 -34 -19z"/>
<path d="M415 3162 c-59 -17 -60 -18 -63 -56 -2 -21 1 -43 6 -48 5 -5 36 17
78 56 38 36 62 65 54 65 -8 0 -42 -8 -75 -17z"/>
<path d="M1495 3094 c-49 -30 -145 -83 -212 -117 -68 -34 -123 -66 -123 -72 0
-5 4 -16 9 -24 7 -11 16 -8 45 14 38 29 50 21 16 -10 -33 -30 -33 -50 0 -109
18 -31 35 -58 40 -61 4 -3 43 22 86 55 43 33 80 58 82 55 2 -2 -26 -42 -63
-89 -57 -74 -65 -88 -55 -106 6 -11 13 -20 15 -20 14 0 220 96 274 127 54 32
66 44 74 73 5 19 18 45 29 57 14 15 18 28 13 45 -17 52 -116 238 -128 237 -6
0 -52 -25 -102 -55z"/>
<path d="M841 3029 c-115 -144 -118 -162 -20 -133 55 17 168 90 169 110 0 13
-40 115 -51 127 -4 5 -48 -42 -98 -104z"/>
<path d="M493 2960 c-89 -86 -101 -103 -94 -122 4 -12 13 -24 19 -26 10 -3
182 144 197 168 7 12 -5 80 -14 80 -3 0 -52 -45 -108 -100z"/>
<path d="M2060 2923 c-30 -20 -70 -47 -89 -61 l-33 -25 75 -33 c90 -39 183
-68 201 -61 15 6 26 95 19 145 -4 24 -15 39 -37 53 -44 27 -73 23 -136 -18z"/>
<path d="M2307 2873 c-13 -12 -8 -133 6 -133 37 1 78 71 54 93 -39 36 -54 46
-60 40z"/>
<path d="M981 2846 c-61 -21 -84 -40 -127 -103 -14 -19 -14 -25 0 -52 9 -16
20 -32 26 -36 11 -7 210 140 210 155 0 19 -24 60 -34 59 -6 0 -40 -11 -75 -23z"/>
<path d="M595 2739 c-17 -4 -50 -28 -73 -52 -40 -41 -43 -46 -30 -66 7 -11 15
-21 18 -21 3 0 39 34 80 75 76 77 77 85 5 64z"/>
<path d="M1040 2644 c-66 -83 -81 -110 -74 -122 6 -9 15 -17 21 -19 8 -3 151
97 197 138 7 6 -48 109 -59 109 -1 0 -40 -48 -85 -106z"/>
<path d="M1639 2670 c-22 -12 -66 -58 -113 -119 l-77 -101 32 -40 c18 -22 37
-40 42 -40 11 0 194 137 203 151 8 14 -29 169 -41 169 -5 -1 -26 -9 -46 -20z"/>
<path d="M676 2551 c-68 -69 -78 -82 -66 -95 22 -28 43 -18 117 56 69 69 71
72 56 95 -8 12 -18 23 -22 23 -4 0 -42 -36 -85 -79z"/>
<path d="M1212 2478 c-36 -14 -65 -35 -89 -65 l-36 -44 21 -21 21 -22 78 75
c43 41 79 79 81 84 5 17 -21 15 -76 -7z"/>
<path d="M1716 2378 c-25 -29 -42 -54 -36 -56 14 -5 110 49 110 62 0 6 -7 19
-14 29 -13 16 -17 14 -60 -35z"/>
<path d="M1318 2296 c-38 -34 -68 -67 -68 -73 0 -13 44 -43 64 -43 17 0 126
97 126 112 0 13 -39 68 -48 68 -4 -1 -37 -29 -74 -64z"/>
<path d="M782 2342 c-27 -8 -30 -23 -8 -37 12 -7 22 -3 43 18 25 24 25 27 8
26 -11 -1 -30 -4 -43 -7z"/>
<path d="M2028 2286 c-2 -16 -11 -22 -39 -24 -30 -3 -50 -18 -129 -97 -52 -52
-92 -95 -89 -95 39 0 268 123 321 172 38 35 32 52 -20 59 -36 5 -41 3 -44 -15z"/>
<path d="M967 2262 c-44 -45 -45 -55 -12 -70 23 -11 30 -8 68 27 l42 40 -22
20 c-12 12 -26 21 -31 21 -4 0 -25 -17 -45 -38z"/>
<path d="M1675 2210 c-3 -5 -2 -10 4 -10 5 0 13 5 16 10 3 6 2 10 -4 10 -5 0
-13 -4 -16 -10z"/>
<path d="M2987 2195 c-128 -45 -170 -211 -79 -309 52 -55 128 -76 212 -60 21
5 35 15 41 32 5 14 8 26 7 28 -2 1 -27 -4 -55 -11 -83 -22 -144 3 -174 68 -52
115 11 222 126 214 28 -2 58 -7 68 -11 14 -7 17 -3 17 22 0 25 -5 30 -31 36
-48 9 -90 7 -132 -9z"/>
<path d="M3590 2208 c0 -2 -2 -87 -3 -191 l-2 -187 29 0 c27 0 28 2 22 31 -3
17 -6 103 -6 190 0 152 -1 159 -20 159 -11 0 -20 -1 -20 -2z"/>
<path d="M3725 2020 l0 -190 30 0 30 0 -5 187 -5 188 -25 3 -25 3 0 -191z"/>
<path d="M1535 2160 c-11 -4 -33 -21 -48 -38 -28 -29 -28 -30 -8 -37 11 -3 28
-13 37 -22 14 -14 19 -12 55 23 44 43 46 51 22 70 -21 15 -30 16 -58 4z"/>
<path d="M1165 2149 c-4 -6 -5 -13 -2 -16 7 -7 27 6 27 18 0 12 -17 12 -25 -2z"/>
<path d="M3315 2086 c-52 -23 -85 -71 -85 -124 0 -59 26 -103 73 -125 46 -22
82 -21 132 3 50 24 75 65 75 122 0 103 -99 166 -195 124z m108 -46 c68 -54 34
-180 -48 -180 -41 0 -71 23 -85 65 -31 95 59 173 133 115z"/>
<path d="M3913 2081 c-61 -38 -82 -130 -45 -193 43 -75 187 -93 223 -27 10 20
9 21 -7 14 -43 -17 -103 -18 -130 -1 -26 17 -56 74 -48 88 3 5 48 8 100 8 l94
0 0 30 c0 18 -11 42 -28 61 -37 42 -110 51 -159 20z m119 -43 c26 -30 14 -38
-58 -38 -68 0 -81 12 -46 42 36 32 74 31 104 -4z"/>
<path d="M4224 2086 c-65 -28 -84 -97 -39 -141 13 -14 30 -25 36 -25 7 0 5 -6
-5 -13 -10 -7 -17 -22 -14 -33 3 -16 14 -20 73 -25 39 -3 78 -9 87 -13 23 -10
32 -41 19 -64 -36 -67 -201 -44 -188 25 3 18 0 23 -18 23 -55 0 -57 -62 -3
-95 46 -28 169 -28 215 -1 44 27 61 70 42 105 -20 36 -55 51 -117 51 -67 0
-66 18 3 36 76 19 105 70 69 122 -14 21 -14 22 10 22 15 0 30 8 36 20 10 19 8
20 -82 20 -56 -1 -106 -6 -124 -14z m98 -43 c37 -33 11 -103 -39 -103 -28 0
-73 41 -73 66 0 47 74 72 112 37z"/>
<path d="M4529 2077 c-43 -29 -59 -60 -59 -117 0 -91 68 -148 163 -137 52 7
77 20 77 43 0 10 -6 11 -26 4 -38 -15 -87 -12 -112 6 -26 18 -55 71 -47 84 3
6 49 10 101 10 91 0 94 1 94 23 0 32 -36 86 -66 97 -42 16 -89 11 -125 -13z
m123 -39 c26 -30 14 -38 -58 -38 -68 0 -81 12 -46 42 36 32 74 31 104 -4z"/>
<path d="M1396 2038 c-9 -5 -16 -13 -16 -18 0 -13 107 -13 115 0 3 6 3 10 -2
10 -4 0 -24 4 -44 9 -21 5 -43 4 -53 -1z"/>
<path d="M280 1030 l0 -380 2238 2 2237 3 3 378 2 377 -2240 0 -2240 0 0 -380z
m341 80 c79 -88 147 -160 152 -160 4 0 7 70 7 155 l0 155 25 0 25 0 0 -222 0
-223 -68 70 c-37 39 -107 112 -155 164 l-87 94 0 -157 0 -156 -25 0 -24 0 -3
216 c-3 187 -1 224 7 224 1 0 66 -72 146 -160z m655 145 c188 -56 208 -328 30
-411 -181 -85 -377 68 -327 256 21 76 70 128 149 156 49 17 88 17 148 -1z
m943 -208 c50 -115 91 -210 91 -213 0 -2 -13 -4 -29 -4 -26 0 -31 6 -54 63
l-25 62 -81 3 -82 3 -30 -66 c-28 -58 -34 -65 -60 -65 l-28 0 33 78 c103 240
160 362 167 355 4 -5 48 -102 98 -216z m1054 200 c33 -14 37 -20 37 -52 l0
-35 -38 25 c-73 48 -148 45 -209 -8 -64 -56 -80 -134 -44 -213 24 -53 71 -86
132 -92 61 -6 90 2 128 34 l31 26 0 -37 c0 -33 -4 -38 -42 -55 -136 -62 -302
24 -324 166 -15 101 49 215 139 248 51 19 137 16 190 -7z m1228 0 c38 -25 43
-44 17 -61 -13 -8 -22 -5 -41 13 -34 31 -86 26 -106 -10 -13 -24 -13 -29 3
-54 10 -15 44 -38 80 -55 80 -35 106 -68 106 -129 0 -91 -60 -139 -158 -128
-35 4 -53 12 -74 36 -23 26 -38 71 -24 71 2 0 11 3 20 6 9 4 20 -4 30 -24 20
-39 63 -57 101 -42 35 13 54 37 55 68 0 40 -19 61 -89 97 -85 42 -111 73 -111
129 0 33 6 48 28 68 33 31 46 36 93 37 22 1 49 -8 70 -22z m-2870 -142 c32
-82 60 -154 62 -159 1 -5 30 63 64 150 56 145 63 159 87 162 15 2 26 -2 26 -9
0 -14 -159 -411 -169 -422 -4 -4 -15 9 -24 30 -95 224 -157 380 -157 394 0 6
12 9 27 7 24 -3 31 -15 84 -153z m839 -35 l0 -190 80 0 c79 0 80 0 80 -25 l0
-25 -110 0 -110 0 0 208 c0 115 3 212 7 215 3 4 17 7 30 7 l23 0 0 -190z m330
-25 l0 -215 -25 0 -25 0 0 215 0 215 25 0 25 0 0 -215z m712 134 l3 -80 108
-2 c124 -2 120 -5 116 96 -3 61 -2 62 24 65 l27 3 0 -216 0 -216 -26 3 c-26 3
-26 3 -28 103 l-1 100 -112 3 -113 3 0 -106 0 -105 -25 0 -25 0 0 215 0 215
25 0 c23 0 24 -2 27 -81z m666 54 c3 -22 1 -23 -88 -23 l-91 0 3 -57 3 -58 88
-3 c85 -3 87 -3 87 -27 0 -24 -2 -24 -87 -27 l-88 -3 -3 -77 -3 -77 88 -3 c83
-3 88 -4 91 -25 3 -23 2 -23 -112 -23 l-116 0 0 215 0 216 113 -3 c108 -3 112
-4 115 -25z"/>
<path d="M1135 1206 c-131 -59 -140 -244 -15 -315 34 -19 52 -22 95 -19 94 8
155 76 155 173 0 123 -126 209 -235 161z"/>
<path d="M2087 1088 c-15 -35 -27 -66 -27 -70 0 -5 27 -8 60 -8 l59 0 -26 63
c-14 34 -29 66 -33 70 -4 4 -19 -21 -33 -55z"/>
</g>
</svg>
